PathFileType	4	(X/Y/Z)	C:\Users\Basilio\Documents\Thesis Gigler\squatting_fais\c3dfiles\019\SLS_back_pre5\markers_experimental.trc
DataRate	CameraRate	NumFrames	NumMarkers	Units	OrigDataRate	OrigDataStartFrame	OrigNumFrames
200.000000	200.000000	4	59	mm	200.000000	1813	2073
Frame#	Time	FHD			LBHD			RBHD			C7			T10			CLAV			LSHO			LUUPA			LMUPA			LDUPA			LLEP			LMEP			LRAD			LUL			LRFIN			RSHO			RUPA1			RMUPA			RDUPA			RLEP			RMEP			RRAD			RUL			RUFIN			LASI			RASI			USACR			LSACR			RSACR			LTHI1			LTHI2			LTHI3			LTHI4			LLFC			LTIB1			LTIB2			LTIB3			LTIB4			LLMAL			LMMAL			LHEE			LMT1			LMT2			LMT5			RTHI			RTHI2			RTHI3			RTHI4			RLFC			RTIB1			RTIB2			RTIB3			RTIB4			RLMAL			RMMAL			RHEE			RMT1			RMT2			RMT5			
		X1	Y1	Z1	X2	Y2	Z2	X3	Y3	Z3	X4	Y4	Z4	X5	Y5	Z5	X6	Y6	Z6	X7	Y7	Z7	X8	Y8	Z8	X9	Y9	Z9	X10	Y10	Z10	X11	Y11	Z11	X12	Y12	Z12	X13	Y13	Z13	X14	Y14	Z14	X15	Y15	Z15	X16	Y16	Z16	X17	Y17	Z17	X18	Y18	Z18	X19	Y19	Z19	X20	Y20	Z20	X21	Y21	Z21	X22	Y22	Z22	X23	Y23	Z23	X24	Y24	Z24	X25	Y25	Z25	X26	Y26	Z26	X27	Y27	Z27	X28	Y28	Z28	X29	Y29	Z29	X30	Y30	Z30	X31	Y31	Z31	X32	Y32	Z32	X33	Y33	Z33	X34	Y34	Z34	X35	Y35	Z35	X36	Y36	Z36	X37	Y37	Z37	X38	Y38	Z38	X39	Y39	Z39	X40	Y40	Z40	X41	Y41	Z41	X42	Y42	Z42	X43	Y43	Z43	X44	Y44	Z44	X45	Y45	Z45	X46	Y46	Z46	X47	Y47	Z47	X48	Y48	Z48	X49	Y49	Z49	X50	Y50	Z50	X51	Y51	Z51	X52	Y52	Z52	X53	Y53	Z53	X54	Y54	Z54	X55	Y55	Z55	X56	Y56	Z56	X57	Y57	Z57	X58	Y58	Z58	X59	Y59	Z59	

1814	9.065	-180.9768371582032	1707.71435546875	-594.3654174804689	-316.1817932128907	1705.019897460938	-733.8569946289064	-317.8766174316407	1692.762084960938	-594.5331420898439	-370.5396728515626	1519.377075195313	-658.9470825195314	-411.3171691894532	1229.301147460938	-686.9264526367189	-231.8148498535157	1469.957275390625	-674.6488037109376	-303.0688171386719	1530.1767578125	-801.494567871094	-184.7941436767578	1487.794921875	-869.6707153320315	-155.35595703125	1481.133422851563	-830.726989746094	-119.5076217651367	1477.09765625	-878.3023681640627	-54.8108367919922	1434.491577148438	-914.342712402344	-62.23457336425783	1378.097900390625	-895.807556152344	189.7645263671875	1444.187866210938	-838.4265136718752	193.471908569336	1400.853149414063	-889.115905761719	260.2614746093751	1462.340087890625	-845.412780761719	-278.8141479492188	1503.471313476563	-539.8049316406251	-159.9304962158203	1413.150390625	-450.9119873046876	-133.3951416015625	1447.69677734375	-481.5386962890626	-90.94970703125001	1404.155029296875	-457.4228820800782	-15.6570520401001	1405.53125	-472.8511657714845	-27.58080863952637	1351.044799804688	-499.847625732422	219.4221649169922	1460.890258789063	-541.2239990234376	235.7572937011719	1410.036743164063	-506.4828491210939	301.3944091796876	1477.7822265625	-533.8599853515626	-271.1208496093751	1039.424438476563	-838.3787841796877	-251.2497863769532	1009.002319335938	-633.4091186523439	-419.3489685058595	1097.480224609375	-710.7084350585939	-427.7816772460939	1069.874267578125	-742.6429443359376	-420.4007873535157	1062.531127929688	-685.9297485351564	-259.6957092285157	806.7073974609377	-953.7915649414065	-192.6462554931641	754.8063964843751	-968.3980102539065	-151.4832305908203	773.1715087890627	-951.2026367187502	-193.5364837646485	693.3237304687501	-967.9969482421877	-172.377426147461	613.5755615234376	-960.8641357421877	-238.4618072509766	496.8331909179689	-920.5351562500002	-308.2358703613282	525.4105834960939	-966.238464355469	-291.6487121582032	492.6619873046876	-943.0015258789065	-361.1589355468751	465.1288146972657	-898.0623168945315	-510.2057189941407	473.5276489257814	-906.101257324219	-480.6874084472657	465.9959106445314	-824.6113281250002	-558.5026245117189	521.0142211914064	-852.085876464844	-504.123992919922	311.6852111816407	-817.9488525390627	-516.2615966796876	307.5278930664063	-855.2833251953127	-561.6519165039064	335.6757812500001	-901.3479003906252	-303.8149108886719	804.6850585937502	-573.4957885742189	-263.2124938964844	757.1204833984376	-581.0882568359376	-237.5599365234376	760.2725219726564	-602.2977294921876	-288.2115173339844	675.2878417968751	-584.9951782226564	-322.8277893066407	517.8911132812501	-629.6287841796876	-290.5975341796876	339.8209533691407	-698.1312255859376	-354.4493103027344	259.6082153320313	-655.0051269531251	-317.7797851562501	257.9485168457032	-684.2714233398439	-326.6442565917969	221.0466461181641	-729.2196044921876	-396.2395935058595	134.734130859375	-700.0150146484376	-376.2014160156251	151.852294921875	-773.390319824219	-468.4517211914064	121.0564041137696	-756.2742919921876	-264.6806640625001	63.60913467407228	-785.7718505859377	-255.9901733398438	59.27660369873048	-738.5208129882814	-301.2030944824219	44.32669067382813	-687.7746582031251	
1815	9.07	-180.293441772461	1707.339965820313	-592.7874145507814	-316.4044494628907	1705.411499023438	-732.6575317382814	-317.2966613769532	1692.848510742188	-593.1344604492189	-370.2459106445313	1519.496948242188	-658.0697021484376	-411.1242065429689	1229.56591796875	-686.7518310546876	-231.557601928711	1470.038818359375	-673.7257080078126	-302.6359252929688	1530.638305664063	-800.5671997070315	-184.3303527832032	1488.224365234375	-868.766052246094	-155.172348022461	1481.341552734375	-829.913513183594	-119.0992889404297	1477.373046875	-877.4434204101565	-54.53508377075197	1434.815185546875	-913.5955200195315	-61.94801712036134	1378.292236328125	-895.1580200195315	190.488037109375	1444.267578125	-837.578552246094	193.7945556640626	1400.929077148438	-888.3796386718752	260.7564392089844	1462.375366210938	-844.6389160156252	-278.3734436035157	1503.268432617188	-538.7427368164064	-159.8646850585938	1413.179931640625	-449.7900390625001	-133.4260864257813	1447.639526367188	-480.5155334472657	-90.8297576904297	1404.072631835938	-456.362762451172	-15.39164829254151	1405.527587890625	-471.7003479003907	-27.2703971862793	1351.188354492188	-498.6087951660157	219.5189361572266	1461.775390625	-539.8073730468751	235.9906768798829	1410.911010742188	-505.1946411132814	301.4512634277344	1478.775390625	-532.7855834960939	-271.1157836914063	1039.773193359375	-838.525573730469	-251.3440399169922	1009.112609863281	-633.6235961914064	-419.2391967773439	1097.8369140625	-710.7512817382814	-427.7793884277345	1070.323974609375	-742.7427368164064	-420.3434448242189	1062.828247070313	-686.0748901367189	-260.4149475097657	807.4641113281252	-954.7392578125002	-193.4057922363282	755.6016845703126	-969.604675292969	-152.0931549072266	773.7536621093752	-952.4658203125002	-194.1342163085938	694.0656127929689	-969.3350219726565	-172.798324584961	614.2078247070314	-962.387878417969	-239.1298217773438	497.2997436523439	-922.3123779296877	-308.8985290527344	526.2331542968751	-967.840759277344	-292.1869812011719	493.217987060547	-944.8347167968752	-361.9001159667969	466.1118469238282	-899.590759277344	-510.6666564941407	474.1384277343751	-907.4561767578127	-481.2742004394532	466.7800292968751	-826.1745605468752	-559.1336059570314	521.7965087890626	-853.3773193359377	-504.9215698242189	312.1952819824219	-819.8731079101565	-517.0031127929689	308.1745605468751	-857.2873535156252	-562.5546264648439	336.6728210449219	-903.0161132812502	-303.9407653808594	804.8588867187502	-573.6127929687501	-263.3381652832032	757.3186035156251	-581.0619506835939	-237.6656341552735	760.4133300781251	-602.3515014648439	-288.2427062988282	675.4248657226564	-585.0562133789064	-322.6632690429688	518.0333862304689	-629.7339477539064	-290.3466491699219	339.9366760253907	-698.0818481445314	-354.3247680664063	259.8016967773438	-654.9723510742189	-317.5984191894532	258.0012817382813	-684.1612548828126	-326.4852294921876	221.1518707275391	-729.1002197265626	-396.1804809570314	134.9202575683594	-699.9446411132814	-376.0859985351563	151.9961090087891	-773.1791992187502	-468.2758789062501	121.2422256469727	-756.1284790039064	-264.6011962890626	63.67454528808595	-785.6902465820315	-255.8794708251954	59.2119598388672	-738.3543701171876	-301.2348632812501	44.35485458374024	-687.7952880859376	
1816	9.075000000000001	-179.7923126220703	1707.245849609375	-591.4146118164064	-316.0900573730469	1705.858642578125	-731.0693359375001	-316.9870300292969	1693.212768554688	-591.6861572265626	-369.9117126464844	1519.621704101563	-657.1336669921876	-410.926971435547	1229.79931640625	-686.5379638671876	-231.2911987304688	1470.207763671875	-672.8080444335939	-302.0094909667969	1530.922607421875	-799.3696899414065	-183.9436798095703	1488.539184570313	-867.9132080078127	-155.5370788574219	1481.567138671875	-829.260192871094	-118.6864013671875	1477.686157226563	-876.6451416015627	-54.16435623168947	1435.098022460938	-912.8254394531252	-61.66366958618165	1378.629760742188	-894.4060058593752	192.3415527343751	1444.101440429688	-836.5618286132815	194.1163787841797	1401.074951171875	-887.7059326171877	260.8678283691407	1462.4609375	-844.0701293945315	-278.0118103027344	1503.14892578125	-537.7046508789064	-160.0155639648438	1413.043579101563	-451.9005126953126	-133.4642944335938	1447.638549804688	-479.4304809570314	-90.80031585693361	1404.017456054688	-455.2888488769532	-15.44508838653565	1405.740234375	-470.4097900390626	-26.60024452209473	1351.162719726563	-496.2235717773439	219.5188293457032	1462.408081054688	-538.3419799804689	236.5977630615235	1411.39453125	-503.5125122070314	301.2833557128907	1479.700927734375	-531.2734375000001	-271.1471862792969	1040.187622070313	-838.7106933593752	-251.3194732666016	1009.192321777344	-633.8317871093751	-418.9353332519532	1098.428344726563	-710.7094116210939	-427.7613830566407	1070.675659179688	-742.8407592773439	-420.3890380859376	1063.133911132813	-686.1544189453126	-261.2129211425782	808.2573852539065	-955.6923828125002	-194.2128295898438	756.4456787109376	-970.9660644531252	-152.7187805175782	774.410583496094	-953.729675292969	-194.864242553711	694.7465820312501	-970.7717895507815	-173.7793121337891	615.0055541992189	-964.1674804687502	-239.8820037841797	497.8395080566407	-924.467956542969	-309.4743652343751	526.8936767578126	-969.5189208984377	-293.2458801269532	494.1709899902345	-946.6480102539065	-362.5248107910157	466.778045654297	-901.4378051757815	-511.6045837402345	475.1691284179689	-909.1140747070315	-481.926239013672	467.3302001953126	-827.6353149414065	-559.9412841796876	522.7417602539064	-854.7515869140627	-505.1857299804689	312.4329223632813	-822.2473754882815	-517.6782226562501	309.0576171875001	-859.1987915039065	-563.2003784179689	337.4340820312501	-904.869567871094	-304.1213684082032	804.9592895507815	-573.7920532226564	-263.4371032714844	757.4690551757814	-581.0936279296876	-237.7929229736329	760.6076660156251	-602.3478393554689	-288.3222656250001	675.6063232421876	-585.1329345703126	-322.3442382812501	518.0723876953126	-629.7840576171876	-290.1217041015626	340.0764770507813	-697.9769897460939	-354.0607299804688	259.9904479980469	-654.9840698242189	-317.4758300781251	258.2331848144532	-684.0756225585939	-326.3572692871094	221.3008880615235	-728.9982910156251	-396.069061279297	135.0631561279297	-699.8865966796876	-375.9254455566407	152.1500244140625	-773.2092285156252	-468.1961364746095	121.4767532348633	-756.0090942382814	-264.6390686035157	63.73818588256837	-785.6906738281252	-255.8405151367188	59.23418045043947	-738.2927246093751	-301.1580505371094	44.29046630859376	-687.7151489257814	
1817	9.08	-179.2688598632813	1707.0654296875	-589.9711303710939	-316.0410766601563	1706.222290039063	-729.7249145507814	-316.4825744628907	1693.197631835938	-590.3450927734376	-369.4012451171876	1519.87890625	-656.2525024414064	-410.9349365234376	1230.119018554688	-686.2615966796876	-231.0104370117188	1470.16259765625	-671.9359130859376	-301.7782897949219	1531.398193359375	-798.791687011719	-183.502685546875	1488.919677734375	-866.969665527344	-154.5245971679688	1481.759887695313	-828.2088623046877	-118.2968215942383	1477.938354492188	-875.7859497070315	-53.78268814086915	1435.4130859375	-912.0996093750002	-61.32357025146486	1378.917724609375	-893.740905761719	190.6447143554688	1444.592651367188	-836.2083129882815	194.4803771972657	1401.1787109375	-887.0053710937502	261.3546752929688	1462.422607421875	-843.2046508789065	-277.8574829101563	1503.056030273438	-536.9251708984376	-159.704086303711	1412.9189453125	-447.970428466797	-133.3714904785157	1447.601196289063	-478.4367980957032	-90.60568237304689	1404.05322265625	-454.132781982422	-15.20784950256348	1405.742065429688	-469.2029724121095	-26.63451576232911	1351.780517578125	-495.139373779297	219.6565093994141	1463.239990234375	-536.9486083984376	235.0434875488282	1412.155883789063	-503.2547607421876	301.2913818359376	1480.524780273438	-529.7799072265626	-271.2464599609376	1040.602783203125	-838.8807373046877	-251.463119506836	1009.107971191406	-634.0612792968751	-418.9805297851564	1098.7470703125	-710.7587280273439	-427.8847961425782	1071.078247070313	-742.8956298828126	-420.4650878906251	1063.37451171875	-686.2432250976564	-261.8089904785157	808.8615722656252	-956.6389160156252	-194.720443725586	756.9901733398439	-972.1330566406252	-153.2264709472657	774.9409790039065	-954.942565917969	-195.5371551513672	695.4740600585939	-972.132019042969	-174.4089660644532	615.5852050781251	-965.9270629882815	-240.6801147460938	498.5339660644532	-926.2610473632815	-310.4361877441407	527.8736572265626	-971.3049316406252	-294.1880187988282	495.1346435546876	-948.4690551757815	-363.3780822753907	467.4165039062501	-903.2181396484377	-512.0889892578126	475.8973693847657	-910.416198730469	-482.4342651367189	467.9139404296876	-829.2365722656252	-560.5354003906251	523.5311279296876	-856.0630493164065	-505.8614807128907	313.1237792968751	-823.7456054687502	-518.4932861328126	309.8840637207032	-861.2341308593752	-564.3784179687501	338.5717468261719	-906.8809814453127	-304.3022460937501	805.0610961914065	-573.9165649414064	-263.4671020507813	757.6087036132814	-581.1616821289064	-237.8983612060547	760.7734375000001	-602.4082031250001	-288.4943847656251	675.7488403320314	-585.2445068359376	-321.9777221679688	518.1185913085939	-629.8184814453126	-289.9489135742188	340.1471557617188	-697.8007812500001	-354.0659790039063	260.1170349121094	-654.8017578125001	-317.2912597656251	258.3735961914063	-683.9420776367189	-326.2429809570313	221.4381561279297	-728.9161987304689	-395.9247436523439	135.2089996337891	-699.7498168945314	-375.7665405273438	152.1765289306641	-772.886901855469	-468.1712646484376	121.7395172119141	-755.9270019531251	-264.5377807617188	63.78785705566408	-785.5991821289065	-255.9814910888672	59.24561309814455	-738.2783813476564	-301.1527099609376	44.24751663208009	-687.6659545898439	
